<svg width="44" height="37" viewBox="0 0 44 37" fill="none" xmlns="http://www.w3.org/2000/svg">
<g style="mix-blend-mode:plus-darker">
<rect width="44" height="37" rx="18.5" fill="#1D3A6B"/>
<path d="M15 26.5C14.4477 26.5 14 26.0523 14 25.5C14 24.9477 14.4477 24.5 15 24.5H29C29.5523 24.5 30 24.9477 30 25.5C30 26.0523 29.5523 26.5 29 26.5H15Z" fill="white"/>
<path d="M24.9718 12.0331C24.8123 11.875 24.5533 11.875 24.3935 12.0331L16.7027 19.6328L15.314 22.4652C15.1913 22.846 15.0606 23.0341 15.3547 23.3249C15.6488 23.6156 15.839 23.4864 16.2243 23.3651L19.0818 21.9848L26.7805 14.3925C26.9403 14.2348 26.9403 13.9788 26.7805 13.8208L24.9718 12.0331Z" fill="white"/>
<path d="M25.7108 10.7033C25.5743 10.8383 25.5743 11.0576 25.7108 11.1926L27.6028 13.0627C27.7394 13.1981 27.9612 13.1981 28.0978 13.0627L28.44 12.7488C28.9551 12.2391 28.9551 11.4134 28.44 10.9037L27.9189 10.389C27.4038 9.87973 26.5681 9.87973 26.053 10.389L25.7108 10.7033Z" fill="white"/>
</g>
</svg>
