<svg width="22" height="18" viewBox="0 0 22 18" fill="none" xmlns="http://www.w3.org/2000/svg">
<path d="M19.8724 5.0625C20.1947 5.25781 20.4883 5.49609 20.7533 5.77734C21.0182 6.05859 21.2402 6.37109 21.4193 6.71484C21.5983 7.05859 21.7415 7.42188 21.8489 7.80469C21.9564 8.1875 22.0065 8.58594 21.9993 9H20.6244C20.6244 8.59375 20.5528 8.20703 20.4095 7.83984C20.2663 7.47266 20.0694 7.15625 19.8187 6.89062C19.5681 6.625 19.2745 6.41016 18.9379 6.24609C18.6013 6.08203 18.2468 6 17.8745 6C17.4949 6 17.1404 6.07812 16.811 6.23438C16.4816 6.39062 16.1916 6.60547 15.9409 6.87891C15.6903 7.15234 15.4933 7.47266 15.3501 7.83984C15.2069 8.20703 15.1317 8.59375 15.1245 9C15.1245 9.71094 14.9777 10.3867 14.6841 11.0273C14.3905 11.668 13.9787 12.1992 13.4488 12.6211C13.9143 12.8789 14.3332 13.1953 14.7056 13.5703C15.078 13.9453 15.4002 14.3672 15.6724 14.8359C15.9445 15.3047 16.1486 15.8047 16.2847 16.3359C16.4207 16.8672 16.4923 17.4219 16.4995 18H15.1245C15.1245 17.3828 15.0171 16.8008 14.8023 16.2539C14.5874 15.707 14.2903 15.2305 13.9107 14.8242C13.5312 14.418 13.0943 14.0977 12.6002 13.8633C12.1061 13.6289 11.5726 13.5078 10.9997 13.5C10.4339 13.5 9.90041 13.6172 9.39913 13.8516C8.89784 14.0859 8.461 14.4102 8.08862 14.8242C7.71624 15.2383 7.42263 15.7148 7.20779 16.2539C6.99295 16.793 6.88195 17.375 6.87479 18H5.49983C5.49983 17.4297 5.57144 16.8789 5.71467 16.3477C5.85789 15.8164 6.06199 15.3164 6.32696 14.8477C6.59192 14.3789 6.9106 13.957 7.28298 13.582C7.65537 13.207 8.07788 12.8867 8.55052 12.6211C8.02775 12.1992 7.61956 11.668 7.32595 11.0273C7.03234 10.3867 6.88195 9.71094 6.87479 9C6.87479 8.59375 6.80318 8.20703 6.65995 7.83984C6.51673 7.47266 6.31979 7.15625 6.06915 6.89062C5.81851 6.625 5.5249 6.41016 5.18832 6.24609C4.85174 6.08203 4.49726 6 4.12487 6C3.74533 6 3.39085 6.07812 3.06143 6.23438C2.73201 6.39062 2.44198 6.60547 2.19134 6.87891C1.9407 7.15234 1.74376 7.47266 1.60054 7.83984C1.45731 8.20703 1.38212 8.59375 1.37496 9H0C0 8.59375 0.0501287 8.19922 0.150386 7.81641C0.250643 7.43359 0.390288 7.07031 0.569319 6.72656C0.74835 6.38281 0.973929 6.07031 1.24606 5.78906C1.51818 5.50781 1.81179 5.26562 2.12689 5.0625C1.89057 4.78906 1.70796 4.47266 1.57905 4.11328C1.45015 3.75391 1.38212 3.38281 1.37496 3C1.37496 2.59375 1.44657 2.20703 1.5898 1.83984C1.73302 1.47266 1.92995 1.15625 2.1806 0.890625C2.43124 0.625 2.72127 0.410156 3.05069 0.246094C3.38011 0.0820312 3.73817 0 4.12487 0C4.49726 0 4.85174 0.078125 5.18832 0.234375C5.5249 0.390625 5.81493 0.605469 6.05841 0.878906C6.30189 1.15234 6.49883 1.47266 6.64921 1.83984C6.7996 2.20703 6.87479 2.59375 6.87479 3C6.87479 3.38281 6.81034 3.75391 6.68144 4.11328C6.55253 4.47266 6.36634 4.78906 6.12286 5.0625C6.71008 5.41406 7.18988 5.89844 7.56227 6.51562C7.94898 5.89062 8.4431 5.39844 9.04465 5.03906C9.64619 4.67969 10.2979 4.5 10.9997 4.5C11.6943 4.5 12.3424 4.67969 12.9439 5.03906C13.5455 5.39844 14.0432 5.89062 14.4371 6.51562C14.8094 5.89844 15.2892 5.41406 15.8765 5.0625C15.6401 4.78906 15.4575 4.47266 15.3286 4.11328C15.1997 3.75391 15.1317 3.38281 15.1245 3C15.1245 2.59375 15.1962 2.20703 15.3394 1.83984C15.4826 1.47266 15.6795 1.15625 15.9302 0.890625C16.1808 0.625 16.4709 0.410156 16.8003 0.246094C17.1297 0.0820312 17.4877 0 17.8745 0C18.2468 0 18.6013 0.078125 18.9379 0.234375C19.2745 0.390625 19.5645 0.605469 19.808 0.878906C20.0515 1.15234 20.2484 1.47266 20.3988 1.83984C20.5492 2.20703 20.6244 2.59375 20.6244 3C20.6244 3.38281 20.5599 3.75391 20.431 4.11328C20.3021 4.47266 20.1159 4.78906 19.8724 5.0625ZM2.74992 3C2.74992 3.21094 2.78572 3.40625 2.85733 3.58594C2.92895 3.76562 3.02562 3.92188 3.14736 4.05469C3.26911 4.1875 3.41591 4.29688 3.58778 4.38281C3.75965 4.46875 3.93868 4.50781 4.12487 4.5C4.31823 4.5 4.49726 4.46094 4.66197 4.38281C4.82668 4.30469 4.9699 4.19922 5.09164 4.06641C5.21338 3.93359 5.31364 3.77344 5.39241 3.58594C5.47119 3.39844 5.50699 3.20312 5.49983 3C5.49983 2.78906 5.46403 2.59375 5.39241 2.41406C5.3208 2.23438 5.22412 2.07812 5.10238 1.94531C4.98064 1.8125 4.83384 1.70312 4.66197 1.61719C4.4901 1.53125 4.31107 1.49219 4.12487 1.5C3.93152 1.5 3.75249 1.53906 3.58778 1.61719C3.42307 1.69531 3.27985 1.80078 3.15811 1.93359C3.03637 2.06641 2.93611 2.22656 2.85733 2.41406C2.77856 2.60156 2.74275 2.79688 2.74992 3ZM10.9997 12C11.372 12 11.7265 11.9219 12.0631 11.7656C12.3997 11.6094 12.6897 11.3945 12.9332 11.1211C13.1767 10.8477 13.3736 10.5312 13.524 10.1719C13.6744 9.8125 13.7496 9.42188 13.7496 9C13.7496 8.59375 13.678 8.20703 13.5347 7.83984C13.3915 7.47266 13.1946 7.15625 12.9439 6.89062C12.6933 6.625 12.3997 6.41016 12.0631 6.24609C11.7265 6.08203 11.372 6 10.9997 6C10.6201 6 10.2656 6.07812 9.93622 6.23438C9.6068 6.39062 9.31677 6.60547 9.06613 6.87891C8.81549 7.15234 8.61855 7.47266 8.47533 7.83984C8.3321 8.20703 8.25691 8.59375 8.24975 9C8.24975 9.41406 8.32136 9.80078 8.46459 10.1602C8.60781 10.5195 8.80474 10.8359 9.05539 11.1094C9.30603 11.3828 9.59606 11.5977 9.92548 11.7539C10.2549 11.9102 10.613 11.9922 10.9997 12ZM16.4995 3C16.4995 3.21094 16.5353 3.40625 16.6069 3.58594C16.6785 3.76562 16.7752 3.92188 16.8969 4.05469C17.0187 4.1875 17.1655 4.29688 17.3374 4.38281C17.5092 4.46875 17.6883 4.50781 17.8745 4.5C18.0678 4.5 18.2468 4.46094 18.4115 4.38281C18.5763 4.30469 18.7195 4.19922 18.8412 4.06641C18.963 3.93359 19.0632 3.77344 19.142 3.58594C19.2208 3.39844 19.2566 3.20312 19.2494 3C19.2494 2.78906 19.2136 2.59375 19.142 2.41406C19.0704 2.23438 18.9737 2.07812 18.852 1.94531C18.7302 1.8125 18.5834 1.70312 18.4115 1.61719C18.2397 1.53125 18.0606 1.49219 17.8745 1.5C17.6811 1.5 17.5021 1.53906 17.3374 1.61719C17.1727 1.69531 17.0294 1.80078 16.9077 1.93359C16.7859 2.06641 16.6857 2.22656 16.6069 2.41406C16.5281 2.60156 16.4923 2.79688 16.4995 3Z" fill="#1C1C1C"/>
</svg>
