<svg width="24" height="24" viewBox="0 0 24 24" fill="none" xmlns="http://www.w3.org/2000/svg">
<path fill-rule="evenodd" clip-rule="evenodd" d="M26.535 20.225L30.777 24.468L26.534 28.711C26.3465 28.8986 26.0922 29.0039 25.827 29.004H23C22.7348 29.004 22.4804 28.8986 22.2929 28.7111C22.1054 28.5236 22 28.2692 22 28.004V25.175C22.0001 24.9098 22.1055 24.6555 22.293 24.468L26.535 20.225ZM29 10C29.5046 9.99984 29.9906 10.1904 30.3605 10.5335C30.7305 10.8766 30.9572 11.3468 30.995 11.85L31 12V16.02C30.2445 15.877 29.4662 15.9101 28.7257 16.1169C27.9851 16.3236 27.3022 16.6984 26.73 17.212L26.534 17.397L20.878 23.054C20.3639 23.5682 20.054 24.2515 20.006 24.977L19.999 25.175V28.004C19.9991 28.2757 20.0361 28.5462 20.109 28.808L20.169 29H17C16.4954 29.0002 16.0094 28.8096 15.6395 28.4665C15.2695 28.1234 15.0428 27.6532 15.005 27.15L15 27V12C14.9998 11.4954 15.1904 11.0094 15.5335 10.6395C15.8766 10.2695 16.3468 10.0428 16.85 10.005L17 10H29ZM32.191 18.811C32.4696 19.0896 32.6907 19.4203 32.8414 19.7843C32.9922 20.1483 33.0699 20.5385 33.0699 20.9325C33.0699 21.3265 32.9922 21.7167 32.8414 22.0807C32.6907 22.4447 32.4696 22.7754 32.191 23.054L27.95 18.81C28.5126 18.2476 29.2755 17.9316 30.071 17.9316C30.8665 17.9316 31.6294 18.2476 32.192 18.81L32.191 18.811ZM23 14H19C18.7348 14 18.4804 14.1054 18.2929 14.2929C18.1054 14.4804 18 14.7348 18 15C18 15.2652 18.1054 15.5196 18.2929 15.7071C18.4804 15.8946 18.7348 16 19 16H23C23.2652 16 23.5196 15.8946 23.7071 15.7071C23.8946 15.5196 24 15.2652 24 15C24 14.7348 23.8946 14.4804 23.7071 14.2929C23.5196 14.1054 23.2652 14 23 14Z" fill="#979797" transform="translate(-12 -5)"/>
</svg>
